<svg xmlns="http://www.w3.org/2000/svg" width="256" height="256" viewBox="0 0 100 100"><rect width="100" height="100" rx="20" fill="#000000"></rect><path fill="#fff" d="M61.30 86L61.30 86L22.90 86Q21 86 20.15 85.15Q19.30 84.30 19.30 82.40L19.30 82.40L19.30 17.60Q19.30 15.70 20.15 14.85Q21 14 22.90 14L22.90 14L54.80 14Q64.60 14 69.30 17.75Q74 21.50 74 29.30L74 29.30L74 34.10Q74 38.30 72.55 40.95Q71.10 43.60 68.10 44.90L68.10 44.90Q74.50 45.50 77.60 49.30Q80.70 53.10 80.70 60.40L80.70 60.40L80.70 69.60Q80.70 78 75.95 82Q71.20 86 61.30 86ZM50.30 31L41.80 31L41.80 41.80L50.30 41.80Q52.20 41.80 53.15 40.80Q54.10 39.80 54.10 37.80L54.10 37.80L54.10 35Q54.10 33 53.15 32Q52.20 31 50.30 31L50.30 31ZM54.80 57.20L41.80 57.20L41.80 69L54.80 69Q56.70 69 57.65 68Q58.60 67 58.60 65L58.60 65L58.60 61.10Q58.60 59.10 57.65 58.15Q56.70 57.20 54.80 57.20L54.80 57.20Z"></path></svg>